<svg xmlns="http://www.w3.org/2000/svg" version="1.1" xmlns:xlink="http://www.w3.org/1999/xlink" xmlns:svgjs="http://svgjs.dev/svgjs" width="1000" height="980" viewBox="0 0 1000 980"><g transform="matrix(1,0,0,1,-0.5656659368728469,0.3974938005673607)"><svg viewBox="0 0 252 247" data-background-color="#ffffff" preserveAspectRatio="xMidYMid meet" height="980" width="1000" xmlns="http://www.w3.org/2000/svg" xmlns:xlink="http://www.w3.org/1999/xlink"><g id="tight-bounds" transform="matrix(1,0,0,1,0.14254781609196243,-0.099973655792013)"><svg viewBox="0 0 251.71490436781608 247.2" height="247.2" width="251.71490436781608"><g><svg viewBox="0 0 251.7149043678161 247.20000000000002" height="247.2" width="251.71490436781608"><g><svg viewBox="0 0 251.7149043678161 247.20000000000002" height="247.20000000000002" width="251.7149043678161"><g id="textblocktransform"><svg viewBox="0 0 251.7149043678161 247.20000000000002" height="247.20000000000002" width="251.7149043678161" id="textblock"><g><svg viewBox="0 0 251.7149043678161 247.20000000000002" height="247.20000000000002" width="251.7149043678161"><path d="M251.126 53.02C249.942 27.36 246.57 20.227 246.57 20.227 236.215-6.202 223.293-0.506 211.684 3.292 191.188 3.446 170.775 9.091 150.326 12.119 107.406 12.581 64.118 4.986 21.411 23.717 17.399 29.464-4.162 24.846 0.714 56.304 1.992 69.39 6.654 83.913 6.512 95.922 7.151 98.026 8.039 93.202 8.417 96.23 9.743 104.39 11.908 100.541 13.683 105.365 11.21 118.246 12.985 128.971 14.677 140.21 11.695 143.135 7.873 141.749 6.157 151.449 5.98 158.479 5.021 157.145 3.968 156.837 3.199 156.632 1.648 157.402 1.909 159.608 2.796 167.152-1.014 171.514 1.376 178.904-0.269 186.91 2.512 193.838 2.134 202.511 2.086 204.255 2.347 205.744 2.761 206.154 4.595 208.361 1.921 212.672 2.205 217.342 21.02 249.262 41.433 227.195 60.71 241.872 65.716 231.608 61.953 245.516 63.953 243.36 65.515 240.846 66.651 251.263 68.414 245.362 68.686 243.668 68.272 239.665 69.242 240.435 69.751 240.846 70.201 240.743 70.272 238.382 70.378 234.841 69.443 237.048 69.195 235.201 71.881 225.861 71.218 248.081 73.739 247.158 73.621 244.438 72.887 240.538 74.39 241.051 75.881 237.151 75.928 233.918 77.254 242.693 77.301 244.592 77.538 245.926 77.916 246.85 82.058 237.305 86.176 250.237 90.519 245.926 93.182 241.205 95.738 248.492 98.436 246.696 99.383 245.259 100.341 242.693 101.252 247.004 112.411 247.928 124.304 244.079 134.884 247.158 163.154 241.41 193.366 249.518 223.174 241.923 230.204 238.998 237.505 234.841 244.357 231.506 244.357 231.506 249.907 222.371 249.907 181.316S251.09 145.393 251.268 112.703C251.445 80.013 252.273 78.679 251.09 53.02Z" opacity="1" fill="#54b0ff" data-fill-palette-color="tertiary"></path><g transform="matrix(1,0,0,1,55.76832,26.230666666666668)"><svg width="140.1782643678161" viewBox="0.9 -34.15 25.05 34.8" height="194.7386666666667" data-palette-color="#ffffff"><path d="M25.8-9.45L25.95-0.65Q20.65 0.65 15.1 0.65 9.55 0.65 6.55-0.93 3.55-2.5 2.23-6.2 0.9-9.9 0.9-16.85L0.9-16.85Q0.9-26.8 3.98-30.48 7.05-34.15 15.7-34.15L15.7-34.15Q19.3-34.15 24.2-33.15L24.2-33.15 25.95-32.8 25.65-23.85Q21.55-24.35 18.07-24.35 14.6-24.35 13.6-23.03 12.6-21.7 12.6-17.55 12.6-13.4 13.08-11.8 13.55-10.2 14.6-9.68 15.65-9.15 18-9.15L18-9.15 25.8-9.45Z" opacity="1" transform="matrix(1,0,0,1,0,0)" fill="#ffffff" class="undefined-text-0" data-fill-palette-color="quaternary" id="text-0"></path></svg></g></svg></g></svg></g></svg></g><g></g></svg></g><defs></defs></svg><rect width="251.71490436781608" height="247.2" fill="none" stroke="none" visibility="hidden"></rect></g></svg></g></svg>